<svg width="21" height="21" viewBox="0 0 21 21" fill="none" xmlns="http://www.w3.org/2000/svg">
<path d="M8.04102 12.2238V5.92376L12.9366 3.09751C15.6491 1.53126 20.5054 5.39439 18.4666 8.92939" stroke="black" stroke-width="0.4375" stroke-linejoin="round"/>
<path d="M8.04102 9.16123L13.4966 6.01123L18.3923 8.83748C21.1048 10.4037 20.186 16.5419 16.1041 16.5419" stroke="black" stroke-width="0.4375" stroke-linejoin="round"/>
<path d="M10.6921 7.63L16.1477 10.78V16.4369C16.1477 19.5694 10.3727 21.8444 8.33398 18.3094" stroke="black" stroke-width="0.4375" stroke-linejoin="round"/>
<path d="M13.3439 9.27502V15.4613L8.44829 18.2875C5.73579 19.8538 0.879538 15.9906 2.91829 12.4556" stroke="black" stroke-width="0.4375" stroke-linejoin="round"/>
<path d="M13.3429 12.2238L7.8873 15.3738L2.99168 12.5475C0.274801 10.9769 1.19355 4.84314 5.27543 4.84314" stroke="black" stroke-width="0.4375" stroke-linejoin="round"/>
<path d="M10.692 13.755L5.23633 10.605V4.94809C5.23633 1.81559 11.0113 -0.459412 13.0501 3.07559" stroke="black" stroke-width="0.4375" stroke-linejoin="round"/>
</svg>
