<svg width="50" height="50" viewBox="0 0 50 50" fill="none" xmlns="http://www.w3.org/2000/svg">
<path d="M45.1879 27.0656L39.0977 23.5734L38.0473 23.1191L13.1328 23.2895V35.9383H45.1879V27.0656Z" fill="white"/>
<path d="M34.0996 34.7742C34.3977 33.752 34.284 32.8152 33.7871 32.1195C33.3328 31.4809 32.5664 31.1117 31.6434 31.0692L14.168 30.8422C14.0543 30.8422 13.9551 30.7856 13.898 30.7004C13.841 30.6152 13.827 30.5016 13.8555 30.3879C13.9121 30.2176 14.0824 30.0899 14.2672 30.0754L31.8988 29.8485C33.9855 29.7492 36.257 28.0598 37.052 25.9871L38.0598 23.3609C38.1023 23.2473 38.1164 23.134 38.0883 23.0203C36.9531 17.8805 32.368 14.0477 26.8883 14.0477C21.8344 14.0477 17.5473 17.3129 16.0141 21.8414C14.9746 21.0673 13.6841 20.708 12.3941 20.8336C9.96641 21.075 8.02187 23.0199 7.78047 25.4473C7.72383 26.0719 7.76641 26.6824 7.9082 27.25C3.94688 27.3637 0.78125 30.6004 0.78125 34.5895C0.78125 34.9445 0.809766 35.2992 0.852344 35.6543C0.864562 35.7363 0.905523 35.8113 0.967916 35.8659C1.03031 35.9205 1.11007 35.9511 1.19297 35.9524H33.4469C33.6313 35.9524 33.802 35.8246 33.8586 35.6399L34.0996 34.7742Z" fill="#F38020"/>
<path d="M39.6649 23.5449C39.5087 23.5449 39.3384 23.5449 39.1821 23.559C39.0684 23.559 38.9692 23.6441 38.9266 23.7578L38.2454 26.1285C37.9473 27.1508 38.061 28.0875 38.5579 28.7832C39.0122 29.4219 39.7786 29.791 40.7016 29.8336L44.4212 30.0605C44.5348 30.0605 44.6341 30.1172 44.6911 30.2023C44.7481 30.2875 44.7622 30.4152 44.7337 30.5148C44.677 30.6852 44.5067 30.8129 44.3219 30.8273L40.4454 31.0547C38.3442 31.1539 36.0872 32.8434 35.2923 34.916L35.0083 35.6398C34.9516 35.7816 35.0509 35.9238 35.2071 35.9238H48.5231C48.6794 35.9238 48.8212 35.8246 48.8637 35.6684C49.0907 34.8449 49.2188 33.9789 49.2188 33.0848C49.2188 27.832 44.9317 23.5449 39.6649 23.5449Z" fill="#FAAE40"/>
</svg>
