<svg width="50" height="50" viewBox="0 0 50 50" fill="none" xmlns="http://www.w3.org/2000/svg">
<path d="M20.5819 4.41872L18.4069 6.59372L21.3912 9.5781L24.5162 12.7031C25.228 12.351 26.0178 12.1864 26.811 12.2249C27.6041 12.2633 28.3743 12.5036 29.0487 12.9229C29.723 13.3422 30.2792 13.9267 30.6645 14.621C31.0498 15.3153 31.2516 16.0965 31.2506 16.8906C31.2338 17.5992 31.0688 18.2965 30.7662 18.9375L33.985 22.0625C34.8291 21.5748 35.817 21.3969 36.7782 21.5595C37.7394 21.722 38.6138 22.2149 39.2506 22.9531C39.6956 23.3798 40.0474 23.8939 40.2841 24.4632C40.5207 25.0325 40.637 25.6445 40.6256 26.2609C40.6266 27.4917 40.1467 28.6743 39.2881 29.5562C38.8562 30.0074 38.3356 30.3643 37.7591 30.6047C37.1826 30.8451 36.5626 30.9637 35.9381 30.9531C35.3204 30.9628 34.707 30.8474 34.135 30.6138C33.5631 30.3801 33.0443 30.0332 32.61 29.5937C31.8741 28.9516 31.3844 28.0736 31.2248 27.1101C31.0652 26.1466 31.2455 25.1576 31.735 24.3125L28.61 21.0937C28.4521 21.1651 28.2904 21.2277 28.1256 21.2812V31.25C29.0328 31.5731 29.8184 32.1678 30.3756 32.9531C30.9444 33.7337 31.2508 34.6747 31.2506 35.6406C31.2629 36.2594 31.1474 36.874 30.9113 37.4461C30.6753 38.0182 30.3238 38.5355 29.8787 38.9656C29.0279 39.8155 27.8811 40.3032 26.6787 40.3265C25.8099 40.3537 24.9508 40.1372 24.1986 39.7014C23.4464 39.2657 22.8311 38.6282 22.4224 37.861C22.0137 37.0938 21.8278 36.2275 21.8858 35.3602C21.9438 34.4928 22.2434 33.659 22.7506 32.9531C23.3079 32.1678 24.0935 31.5731 25.0006 31.25V21.2812C24.0915 20.9618 23.3049 20.3663 22.7506 19.5781C22.1799 18.7985 21.8733 17.8568 21.8756 16.8906C21.8743 16.1798 22.0402 15.4786 22.36 14.8437L16.2662 8.74997L4.42406 20.5812C3.84332 21.1615 3.3826 21.8505 3.06821 22.6089C2.75383 23.3673 2.59194 24.1802 2.5918 25.0012C2.59165 25.8222 2.75325 26.6351 3.06737 27.3936C3.38149 28.1522 3.84196 28.8413 4.42249 29.4218L20.5819 45.5812C21.7539 46.7529 23.3433 47.4111 25.0006 47.4111C26.6579 47.4111 28.2473 46.7529 29.4194 45.5812L45.5819 29.4187C46.7536 28.2467 47.4118 26.6572 47.4118 25C47.4118 23.3427 46.7536 21.7533 45.5819 20.5812L29.4194 4.41872C28.2473 3.24703 26.6579 2.58881 25.0006 2.58881C23.3433 2.58881 21.7539 3.24703 20.5819 4.41872Z" fill="#E64A19"/>
</svg>
