<svg width="50" height="52" viewBox="0 0 50 52" fill="none" xmlns="http://www.w3.org/2000/svg">
<path fill-rule="evenodd" clip-rule="evenodd" d="M25.0002 1.21875C11.5183 1.21875 0.585938 12.5864 0.585938 26.6096C0.585938 37.8279 7.58137 47.3455 17.2819 50.7029C18.502 50.9379 18.95 50.1521 18.95 49.4814C18.95 48.876 18.9274 46.8758 18.9168 44.7542C12.1248 46.2901 10.6916 41.7584 10.6916 41.7584C9.58099 38.8236 7.98081 38.0432 7.98081 38.0432C5.7657 36.4673 8.14778 36.4997 8.14778 36.4997C10.5994 36.6788 11.8903 39.1162 11.8903 39.1162C14.0678 42.9979 17.6017 41.8757 18.9949 41.2269C19.214 39.5859 19.8467 38.4658 20.5449 37.8317C15.1222 37.1897 9.4217 35.0125 9.4217 25.2834C9.4217 22.5113 10.3754 20.2463 11.9372 18.4682C11.6837 17.8287 10.848 15.2462 12.1737 11.7488C12.1737 11.7488 14.2239 11.0664 18.8894 14.3514C20.8368 13.7889 22.9254 13.5067 25.0002 13.4971C27.075 13.5067 29.1652 13.7889 31.1163 14.3514C35.7761 11.0664 37.8235 11.7488 37.8235 11.7488C39.1524 15.2462 38.3163 17.8287 38.0628 18.4682C39.6282 20.2463 40.5755 22.5113 40.5755 25.2834C40.5755 35.0356 34.8641 37.1829 29.4276 37.8115C30.3033 38.5995 31.0836 40.1447 31.0836 42.5135C31.0836 45.9109 31.0553 48.6451 31.0553 49.4814C31.0553 50.1571 31.4947 50.9488 32.7322 50.6995C42.4275 47.3383 49.4141 37.8241 49.4141 26.6096C49.4141 12.5864 38.4833 1.21875 25.0002 1.21875ZM9.72987 37.3885C9.6761 37.5147 9.48528 37.5525 9.31143 37.4659C9.13435 37.3831 9.0349 37.2111 9.09231 37.0845C9.14487 36.9546 9.3361 36.9185 9.51277 37.0055C9.69025 37.0883 9.79133 37.262 9.72987 37.3885ZM10.9308 38.503C10.8143 38.6152 10.5867 38.5631 10.4323 38.3856C10.2726 38.2086 10.2427 37.9719 10.3607 37.858C10.4808 37.7457 10.7016 37.7983 10.8617 37.9753C11.0213 38.1544 11.0525 38.3894 10.9308 38.503ZM11.7547 39.9288C11.6051 40.0369 11.3605 39.9355 11.2093 39.7098C11.0597 39.484 11.0597 39.2132 11.2125 39.1047C11.3641 38.9962 11.6051 39.0938 11.7583 39.3179C11.9075 39.5475 11.9075 39.8182 11.7547 39.9288ZM13.148 41.5802C13.0142 41.7336 12.7292 41.6924 12.5205 41.483C12.3071 41.2783 12.2476 40.9877 12.3819 40.8343C12.5173 40.6804 12.8039 40.7237 13.0142 40.9314C13.226 41.1357 13.2907 41.4284 13.148 41.5802ZM14.9488 42.1376C14.8897 42.3365 14.6152 42.4269 14.3387 42.3424C14.0625 42.2554 13.8818 42.0224 13.9376 41.8214C13.995 41.6213 14.2708 41.5271 14.5493 41.6175C14.825 41.7041 15.0062 41.9354 14.9488 42.1376ZM16.9981 42.3741C17.005 42.5835 16.7705 42.7571 16.4802 42.7609C16.1883 42.7677 15.9522 42.5982 15.949 42.3922C15.949 42.1807 16.1782 42.0087 16.4701 42.0037C16.7604 41.9978 16.9981 42.166 16.9981 42.3741ZM19.0113 42.2938C19.0461 42.4982 18.8444 42.708 18.5561 42.7639C18.2727 42.8177 18.0103 42.6916 17.9743 42.4889C17.9392 42.2795 18.1445 42.0697 18.4275 42.0155C18.7162 41.9634 18.9745 42.0861 19.0113 42.2938Z" fill="#464342"/>
</svg>
