<svg width="50" height="50" viewBox="0 0 50 50" fill="none" xmlns="http://www.w3.org/2000/svg">
<g clip-path="url(#clip0_1235_825)">
<path d="M38.2812 0H11.7188C5.24666 0 0 5.24666 0 11.7188V38.2812C0 44.7533 5.24666 50 11.7188 50H38.2812C44.7533 50 50 44.7533 50 38.2812V11.7188C50 5.24666 44.7533 0 38.2812 0Z" fill="url(#paint0_linear_1235_825)"/>
<path d="M15.4755 13.4258C13.5252 16.2809 13.7681 19.9948 15.2541 23.0247L15.3634 23.2405L15.4373 23.3772C15.4509 23.4038 15.4666 23.4299 15.4808 23.4557C15.5066 23.5038 15.5324 23.5499 15.5547 23.5971L15.6968 23.8456L15.7779 23.9823L15.9429 24.2452L16.0168 24.3559C16.0906 24.4741 16.174 24.5915 16.256 24.7073L16.2627 24.7165C16.2755 24.735 16.29 24.7534 16.2998 24.7719C16.3705 24.8715 16.4472 24.9698 16.5211 25.0672L16.6031 25.1735L16.8043 25.4254L16.881 25.5192C16.9726 25.6296 17.0661 25.7384 17.1617 25.8456L17.1675 25.8514C17.1713 25.8561 17.175 25.8588 17.1787 25.8635C17.2711 25.9681 17.3661 26.0702 17.4636 26.17L17.5552 26.2637L17.783 26.4913L17.8759 26.5813C17.9784 26.6793 18.0824 26.7757 18.1879 26.8704L18.247 26.9219L18.5302 27.1657L18.6474 27.261L18.8838 27.4456L19.0101 27.5434L19.3713 27.8073C19.3804 27.8135 19.3884 27.8202 19.3978 27.8264C19.4826 27.8856 19.5687 27.9428 19.655 28L19.7666 28.0756L20.1697 28.3268L20.2812 28.3907L20.5839 28.5633C20.6392 28.5936 20.6959 28.6225 20.7511 28.6512L20.9675 28.762L21.0173 28.7864L21.106 28.8299L21.4492 28.9916L21.522 29.0286C21.6545 29.0873 21.7879 29.1437 21.9222 29.1979L22.0197 29.2372L22.3972 29.3795L22.4445 29.3965C22.584 29.4458 22.7243 29.4926 22.8654 29.537L22.967 29.5678C23.1146 29.6122 23.2531 29.6651 23.4015 29.6934C32.8332 31.4493 35.5736 23.9247 35.5736 23.9247C33.2726 26.9778 29.1882 27.7825 25.3187 26.8866C25.172 26.8497 25.0298 26.8065 24.8867 26.7633L24.7789 26.7264C24.6396 26.6828 24.501 26.6369 24.3632 26.5887L24.306 26.5676C24.1831 26.5233 24.0609 26.4772 23.9394 26.4292L23.8361 26.3877C23.7031 26.3344 23.5711 26.2786 23.4402 26.2202L23.3613 26.1848L23.0275 26.026L22.9316 25.9788C22.8449 25.9352 22.7587 25.8905 22.673 25.8448L22.5007 25.7524C22.3965 25.6954 22.2934 25.6365 22.1914 25.5756L22.0869 25.5165C21.9512 25.4349 21.8168 25.3512 21.6838 25.2655C21.6468 25.2415 21.6113 25.2161 21.5748 25.1917L21.2879 24.9975L21.1957 24.9311L20.9244 24.7317L20.8039 24.6393L20.5591 24.4444L20.45 24.3559L20.1453 24.0975C20.1336 24.0873 20.1212 24.0778 20.1084 24.069C20.0001 23.9717 19.8933 23.8727 19.7881 23.7721L19.6978 23.6836L19.4673 23.454L19.3775 23.3616C19.2815 23.2619 19.1874 23.1606 19.0951 23.0575C19.0906 23.0522 19.0853 23.0475 19.081 23.0426C18.9834 22.9338 18.8879 22.823 18.7945 22.7104L18.7195 22.6196L18.5129 22.36L18.4371 22.2641L18.199 21.9411C16.0506 18.9563 15.2826 14.8399 16.9955 11.459L15.4755 13.4258ZM21.53 11.0204C20.1199 13.0877 20.1963 15.8543 21.2964 18.0407C21.4804 18.4077 21.6888 18.7621 21.9203 19.1012C22.1316 19.4096 22.366 19.777 22.6464 20.0243C22.748 20.135 22.8543 20.2458 22.9629 20.3588C22.9902 20.3872 23.0183 20.4141 23.0463 20.4426C23.1517 20.5472 23.2595 20.6492 23.3697 20.7487L23.383 20.7604C23.5071 20.8707 23.634 20.9778 23.7636 21.0817L23.8494 21.1495C23.9783 21.251 24.1099 21.349 24.2443 21.4434C24.2478 21.4464 24.2515 21.4493 24.2554 21.452C24.3144 21.4936 24.3754 21.5331 24.4355 21.5729C24.4644 21.5922 24.4916 21.6125 24.5205 21.6305C24.6168 21.6935 24.7144 21.7545 24.8132 21.8133L24.8547 21.8377L25.113 21.9854C25.1433 22.0028 25.1742 22.0178 25.2052 22.034L25.3898 22.1293C25.3992 22.1342 25.4084 22.1377 25.4172 22.1422C25.5416 22.2049 25.6668 22.2641 25.7949 22.3213C25.8222 22.3334 25.8502 22.3446 25.8783 22.3563C25.9809 22.4009 26.0843 22.4436 26.1884 22.4844L26.3213 22.534C26.4155 22.5689 26.5103 22.6025 26.6056 22.6348L26.7339 22.6764C26.8695 22.7196 27.0035 22.7735 27.1449 22.7975C34.4269 24.0262 36.1086 18.3157 36.1086 18.3157C34.5931 20.5381 31.6586 21.5993 28.5263 20.7715C28.3878 20.7346 28.2503 20.694 28.114 20.6497C28.0722 20.6368 28.0314 20.6231 27.99 20.6127C27.8933 20.5809 27.7972 20.5471 27.7017 20.5116L27.5713 20.4622C27.4668 20.4252 27.3634 20.3792 27.2613 20.3348C27.2332 20.3225 27.205 20.3116 27.1775 20.2987C27.049 20.2424 26.9222 20.1824 26.7972 20.1188C26.733 20.0868 26.6699 20.0532 26.6066 20.0198L26.4966 19.9624C26.4155 19.9177 26.3351 19.8715 26.2556 19.8239L26.198 19.787C26.0997 19.7282 26.0025 19.6676 25.9064 19.6053C25.8767 19.586 25.848 19.5684 25.8185 19.5456L25.6295 19.4182C25.4959 19.3237 25.3647 19.2259 25.2359 19.125L25.1472 19.0542C23.7765 17.9518 22.6896 16.4456 22.1732 14.7374C21.6316 12.9653 21.7486 10.9772 22.69 9.36353L21.53 11.0204ZM26.6211 9.22329C25.7896 10.4696 25.7082 12.0172 26.2888 13.3936C26.8972 14.8543 28.1439 16.0006 29.5988 16.5438C29.6588 16.5667 29.7189 16.5868 29.7834 16.6077L29.8632 16.6334C29.9488 16.6608 30.0341 16.6924 30.1224 16.7096C34.1435 17.5006 35.2339 14.6081 35.5242 14.1823C34.5687 15.5834 32.9632 15.9198 30.9933 15.4329C30.8382 15.394 30.6666 15.3368 30.5132 15.2831C30.3206 15.2131 30.1317 15.1331 29.9474 15.0434C29.5969 14.8713 29.2645 14.6646 28.955 14.4264C27.1884 13.0641 26.0931 10.4659 27.2435 8.34985M17.7408 35.6799L17.4685 36.6458L17.7408 35.6803V35.6799ZM25.7461 33.4686H24.4982C24.4629 33.4699 24.4289 33.4827 24.4014 33.5049C24.3739 33.5271 24.3542 33.5576 24.3455 33.5918L23.4593 37.6924C23.4505 37.7266 23.4309 37.7569 23.4035 37.7791C23.3761 37.8012 23.3422 37.8139 23.307 37.8153H22.4236C21.5494 37.8153 21.6506 37.211 21.8328 36.3829L21.8384 36.3579L21.9443 35.793L21.99 35.5604L22.3933 33.5918C22.3972 33.5768 22.3974 33.5611 22.3941 33.546C22.3907 33.5308 22.3839 33.5167 22.3741 33.5046C22.3643 33.4926 22.3518 33.4831 22.3376 33.4767C22.3235 33.4704 22.308 33.4675 22.2925 33.4682H21.0115C20.9762 33.4694 20.9422 33.482 20.9147 33.5043C20.8872 33.5265 20.8678 33.5571 20.8593 33.5915L20.2822 36.3286C19.9648 37.7772 20.049 39.1588 21.7738 39.202L21.8236 39.203H24.5304C24.5657 39.2016 24.5997 39.1889 24.6271 39.1667C24.6546 39.1445 24.6742 39.114 24.683 39.0797L25.8502 33.5915C25.865 33.5237 25.8195 33.4682 25.7505 33.4682L25.7461 33.4686ZM30.7252 37.8297C30.7947 37.8297 30.8359 37.885 30.8259 37.953L30.7048 38.5456L30.7252 37.8297Z" fill="white"/>
<path d="M27.3883 37.0669C27.3873 37.0019 27.4611 36.8904 27.5305 36.8904L27.3746 36.8878C27.3008 37.5945 27.3883 37.0669 27.3883 37.0669ZM30.7268 37.8296C30.7963 37.8296 30.8375 37.8849 30.8275 37.9529L30.6865 38.6417L30.7268 37.8296ZM28.4051 39.2738H28.3467H28.4125H28.4051ZM10.0576 37.0816L10.2516 36.2222L10.0301 37.2042L10.0041 37.3275L10.058 37.081L10.0576 37.0816ZM12.3783 33.4544H11.0076C10.9722 33.4558 10.9381 33.4685 10.9104 33.4907C10.8827 33.5128 10.8629 33.5432 10.8537 33.5775L10.5937 34.7218C10.5894 34.7366 10.5887 34.7523 10.5917 34.7674C10.5947 34.7826 10.6013 34.7968 10.6109 34.8088C10.6206 34.8209 10.633 34.8305 10.6471 34.8367C10.6612 34.843 10.6766 34.8458 10.692 34.8449H12.0734C12.1088 34.8435 12.1427 34.8309 12.1702 34.8087C12.1977 34.7865 12.2174 34.7561 12.2262 34.7218L12.4773 33.5748C12.492 33.5074 12.4477 33.4519 12.3777 33.4519L12.3783 33.4544ZM8.09805 41.5257L9.22852 41.5347C8.89473 41.5347 8.34375 41.5285 8.09766 41.5255L8.09805 41.5257Z" fill="white"/>
<path d="M11.9801 35.2395H10.5983C10.5629 35.2409 10.5288 35.2536 10.5011 35.2757C10.4734 35.2978 10.4536 35.3283 10.4444 35.3625L10.0567 37.0813L10.0028 37.328L9.63366 39.0826C9.61543 39.1647 9.59329 39.2455 9.56725 39.3252C9.56725 39.3252 9.30885 40.0932 8.87546 40.0846L8.44538 40.0766C8.4101 40.0776 8.37604 40.0897 8.34815 40.1114C8.32027 40.133 8.3 40.163 8.2903 40.1969L8.00417 41.4014C7.99969 41.4161 7.9988 41.4317 8.00159 41.4468C8.00438 41.462 8.01076 41.4762 8.02019 41.4884C8.02962 41.5006 8.04183 41.5103 8.05579 41.5168C8.06976 41.5232 8.08508 41.5263 8.10046 41.5256L9.23132 41.5348C10.3153 41.5348 10.8864 40.934 11.2528 39.2063L12.0835 35.3668C12.0983 35.2994 12.0532 35.244 11.9839 35.244L11.9801 35.2395ZM31.6063 39.2037C31.537 39.2037 31.4956 39.1485 31.5067 39.0805L32.546 34.2125L31.6063 39.2037Z" fill="white"/>
<path d="M31.5222 39.1422C31.5138 39.1082 31.5186 39.025 31.5333 38.9574L32.0265 36.6465L31.5067 39.0805C31.4919 39.1485 31.537 39.2037 31.6063 39.2037H31.7327C31.6634 39.2037 31.5304 39.176 31.5222 39.1422ZM32.9694 39.176C32.9317 39.1908 32.8438 39.2037 32.7745 39.2037H32.9007C32.9359 39.2024 32.9698 39.1896 32.9971 39.1673C33.0244 39.145 33.0437 39.1144 33.052 39.0801L33.0772 38.9569C33.0636 39.0246 33.0034 39.161 32.9665 39.176H32.9694ZM37.3618 34.5385L37.419 34.7748C37.4351 34.8424 37.3911 34.8973 37.322 34.8977M33.4468 37.1242L33.4977 36.8791L33.696 35.9506L33.4716 37.002L33.4468 37.1239V37.1242ZM32.5634 34.1324L32.5202 34.3354L32.0269 36.6465L32.5468 34.2125L32.5634 34.1328V34.1324Z" fill="white"/>
<path d="M37.4181 34.7748L37.3609 34.5385L37.2761 34.1693C37.1638 33.7336 36.8345 33.4814 36.1191 33.4814L32.8259 33.4793C32.7906 33.4805 32.7567 33.4931 32.7293 33.5154C32.7019 33.5376 32.6824 33.5682 32.674 33.6025L32.623 33.8437L32.5492 34.208L31.5361 38.9531C31.5213 39.0211 31.5166 39.1008 31.525 39.1377C31.5334 39.1746 31.6664 39.1994 31.7355 39.1994H32.7765C32.8459 39.1994 32.9334 39.1867 32.9714 39.1717C33.0095 39.1564 33.0652 39.024 33.0822 38.9523L33.4773 36.9978L33.9 35.0176C33.9088 34.9835 33.9283 34.9531 33.9557 34.931C33.9831 34.9089 34.0169 34.8961 34.0521 34.8947L37.3277 34.8931C37.3968 34.8931 37.4408 34.8379 37.4248 34.7703L37.4181 34.7748ZM41.6353 32.6361L41.3832 32.6371H40.3347C40.2964 32.6396 40.259 32.6502 40.225 32.6681C40.191 32.686 40.1612 32.7109 40.1375 32.7412L37.8191 36.1377C37.78 36.1949 37.7353 36.1865 37.7195 36.1193L37.5488 35.3709C37.5396 35.3367 37.5197 35.3063 37.492 35.2842C37.4643 35.2621 37.4303 35.2494 37.3949 35.248H35.9047C35.8351 35.248 35.7939 35.3023 35.8131 35.3691L36.4775 37.709C36.4966 37.7754 36.4978 37.8849 36.4812 37.9525L36.1859 39.0849C36.1808 39.0994 36.1795 39.115 36.182 39.1301C36.1845 39.1453 36.1907 39.1595 36.2002 39.1717C36.2097 39.1837 36.222 39.1932 36.2361 39.1994C36.2502 39.2056 36.2655 39.2082 36.2808 39.207H37.7574C37.793 39.2055 37.8273 39.193 37.8555 39.1712C37.8837 39.1493 37.9045 39.1193 37.9148 39.0851L38.2101 37.9529C38.2332 37.8732 38.2695 37.7978 38.3172 37.7301L42.0849 32.734C42.1267 32.6785 42.1043 32.6336 42.0347 32.6342L41.6398 32.6369L41.6353 32.6361ZM29.7935 35.5662C29.7847 35.64 29.7154 35.6955 29.6459 35.6955H27.7556C27.6904 35.6955 27.6572 35.6511 27.6672 35.5957L27.6685 35.5857L27.6771 35.5537C27.8617 35.0738 28.2254 34.7588 28.916 34.7588C29.6939 34.7588 29.8457 35.139 29.7929 35.5662H29.7935ZM29.239 33.3851C26.8136 33.3851 26.2388 34.8574 25.9166 36.3433C25.5939 37.858 25.6218 39.2746 28.1316 39.2746H28.5295L28.8359 39.2734L30.433 39.2638C30.468 39.2623 30.5016 39.2493 30.5287 39.2271C30.5558 39.2048 30.5749 39.1743 30.5832 39.1402L30.8257 37.9545C30.8398 37.8865 30.7945 37.831 30.725 37.831H28.4685C27.5715 37.831 27.3047 37.5926 27.4027 36.8916H31.0097C31.0388 36.8913 31.067 36.8823 31.0909 36.8657C31.1147 36.8491 31.133 36.8257 31.1433 36.7986C31.1475 36.7885 31.1505 36.778 31.1521 36.7672C31.6875 34.7478 31.534 33.3867 29.2398 33.3867L29.239 33.3851ZM17.7746 35.5582L17.7406 35.6789L17.4683 36.6445L17.1959 37.6095C17.1845 37.6435 17.1631 37.6733 17.1345 37.6949C17.1059 37.7165 17.0715 37.7289 17.0357 37.7306H15.5935C14.5 37.7306 14.2338 36.8754 14.5 35.6138C14.7658 34.3236 15.2882 33.5213 16.3644 33.4402C17.8351 33.3295 18.1291 34.3638 17.7746 35.5578V35.5582ZM18.7632 37.6568C18.7632 37.6568 19.4425 36.0066 19.5976 35.0531C19.808 33.7767 19.1695 31.9261 16.7015 31.9261C14.2474 31.9261 13.182 33.6929 12.7757 35.6179C12.3695 37.5523 12.9019 39.2492 15.3414 39.2359L19.0648 39.2222C19.1005 39.2205 19.1349 39.2078 19.1631 39.1859C19.1914 39.1639 19.2121 39.1338 19.2226 39.0996L19.5363 37.9043C19.5413 37.8898 19.5426 37.8743 19.5402 37.8592C19.5379 37.8441 19.5318 37.8298 19.5226 37.8176C19.5133 37.8053 19.501 37.7956 19.487 37.7893C19.4729 37.783 19.4575 37.7804 19.4422 37.7816L18.8416 37.7779C18.7826 37.7775 18.7492 37.7396 18.7558 37.6894C18.7573 37.6798 18.7598 37.6704 18.7632 37.6613V37.6568Z" fill="white"/>
<path d="M30.9115 36.5527C30.9115 36.5746 30.9028 36.5957 30.8873 36.6112C30.8718 36.6267 30.8507 36.6354 30.8288 36.6354C30.8069 36.6354 30.7858 36.6267 30.7703 36.6112C30.7548 36.5957 30.7461 36.5746 30.7461 36.5527C30.7461 36.5307 30.7548 36.5097 30.7703 36.4942C30.7858 36.4787 30.8069 36.47 30.8288 36.47C30.8507 36.47 30.8718 36.4787 30.8873 36.4942C30.9028 36.5097 30.9115 36.5307 30.9115 36.5527Z" fill="white"/>
</g>
<defs>
<linearGradient id="paint0_linear_1235_825" x1="0" y1="0" x2="50" y2="50" gradientUnits="userSpaceOnUse">
<stop stop-color="#FF5C00"/>
<stop offset="1" stop-color="#FF0F00"/>
</linearGradient>
<clipPath id="clip0_1235_825">
<rect width="50" height="50" fill="white"/>
</clipPath>
</defs>
</svg>
