<svg width="50" height="34" viewBox="0 0 50 34" fill="none" xmlns="http://www.w3.org/2000/svg">
<g clip-path="url(#clip0_1235_808)">
<path d="M14.875 22.4358L16.3945 27.3543C16.7358 28.471 16.8782 29.2506 16.8212 29.6949C17.6522 27.4745 18.2328 25.0548 18.5632 22.4358H20.3902C19.6045 26.6996 18.5685 29.7979 17.2823 31.7308C16.2802 33.2202 15.1824 33.9649 13.987 33.9649C13.6683 33.9649 13.2753 33.8689 12.809 33.6781V32.6503C13.0369 32.6836 13.3041 32.7015 13.6115 32.7015C14.1691 32.7013 14.6188 32.5473 14.9607 32.2395C15.3701 31.8645 15.5751 31.4431 15.5751 30.9759C15.5751 30.657 15.4152 30.0024 15.097 29.0122L12.9799 22.4358H14.875ZM3.24618 19.4127L6.0292 27.8841H6.04639L8.8465 19.4127H11.1342C11.6352 23.6139 11.9311 27.4579 12.0219 30.9421H10.0931C10.0251 27.6851 9.83739 24.6222 9.52986 21.7534H9.51306L6.57595 30.9421H5.10709L2.18775 21.7534H2.17056C1.95411 24.5086 1.81753 27.5715 1.76082 30.9421H0.00195312C0.115618 26.8426 0.400072 22.9999 0.855316 19.4127H3.24618Z" fill="#00758F"/>
<path d="M34.4222 19.2417C37.4159 19.2417 38.9128 21.1498 38.9128 24.9641C38.9128 27.0368 38.4626 28.6025 37.5631 29.6602C37.401 29.8535 37.2218 30.0205 37.0332 30.1752L39.1517 31.2202L39.1497 31.2201L38.3975 32.516L35.6386 30.91C35.1812 31.0451 34.6782 31.1126 34.1298 31.1126C32.6598 31.1126 31.5619 30.6853 30.8359 29.8316C30.0391 28.8872 29.6409 27.4004 29.6409 25.3739C29.6409 23.3128 30.0903 21.7531 30.99 20.694C31.8095 19.7253 32.9538 19.2417 34.4222 19.2417ZM25.2548 19.2583C26.3248 19.2583 27.2977 19.544 28.174 20.1132L27.7289 21.1027C26.9791 20.7847 26.2397 20.6251 25.5107 20.6251C24.9191 20.6251 24.4633 20.7671 24.1455 21.0529C23.826 21.3362 23.6284 21.7008 23.6284 22.1452C23.6284 22.8281 24.1161 23.4204 25.0165 23.9207C25.3115 24.0816 25.6054 24.2443 25.8984 24.4089L25.9655 24.4466L25.9992 24.4655L26.0665 24.5032L26.1001 24.5221L26.1673 24.5599C26.8489 24.9433 27.4902 25.3092 27.4902 25.3092C28.3906 25.9468 28.8394 26.6266 28.8394 27.7463C28.8394 28.7241 28.4802 29.5267 27.7643 30.1548C27.0478 30.78 26.0853 31.0935 24.8799 31.0935C23.7525 31.0935 22.6599 30.7327 21.6016 30.017L22.0966 29.0267C23.0074 29.4821 23.8316 29.7096 24.5717 29.7096C25.2658 29.7096 25.8091 29.555 26.2021 29.2497C26.5944 28.9421 26.8295 28.5132 26.8295 27.9693C26.8295 27.2847 26.3521 26.6995 25.4765 26.2086C25.2024 26.0575 24.9292 25.905 24.6567 25.751L24.5897 25.7131C24.4664 25.6436 24.3423 25.5733 24.2207 25.5044L24.1548 25.467C23.5635 25.1315 23.0523 24.8383 23.0523 24.8383C22.177 24.1995 21.7381 23.5142 21.7381 22.3849C21.7381 21.4509 22.0654 20.696 22.7191 20.1217C23.3744 19.5461 24.2196 19.2583 25.2548 19.2583ZM42.431 19.4126V29.5238H46.0673V30.9421H40.5868V19.4127L42.431 19.4126ZM48.0878 29.5282V29.7678H47.6881V30.9408H47.3824V29.7678H46.9671V29.5282H48.0878ZM48.8261 29.5282L49.2099 30.4911L49.5626 29.5282H49.9958V30.9408H49.7078V29.8657L49.3064 30.9408H49.0987L48.6967 29.8657H48.6813V30.9408H48.4087V29.5282H48.8261ZM34.234 20.6595C32.4698 20.6595 31.5873 22.1121 31.5873 25.0152C31.5873 26.6782 31.8211 27.8841 32.288 28.6357C32.7204 29.3313 33.3976 29.6784 34.3197 29.6784C36.0838 29.6784 36.9663 28.2146 36.9663 25.2882C36.9663 23.6485 36.7324 22.453 36.2661 21.701C35.8333 21.0069 35.1564 20.6595 34.2341 20.6595" fill="#F29111"/>
<path d="M29.6113 0.714396C30.1966 -0.720228 32.2428 0.366213 33.0369 0.867348C33.2315 0.992729 33.4547 1.25762 33.6779 1.35553C34.026 1.36916 34.3738 1.39634 34.7225 1.41086C35.3766 1.5642 35.9893 1.68949 36.5046 1.98233C38.8998 3.38958 40.459 4.82362 41.894 7.19232C42.2006 7.69404 42.3538 8.23697 42.6043 8.7799C42.9519 9.58918 43.3425 10.4387 43.746 11.2039C43.9266 11.5667 44.0664 11.9701 44.3172 12.2765C44.4152 12.4166 44.6934 12.4579 44.8597 12.5416C45.3194 12.779 45.8764 12.9593 46.3088 13.2379C47.1163 13.7402 47.897 14.3388 48.6067 14.9515C48.8712 15.1881 49.0515 15.5229 49.3035 15.7731V15.8993C49.0798 15.9678 48.8569 16.038 48.6338 16.0942C48.1464 16.2191 47.7147 16.1908 47.2418 16.3158C46.9497 16.4004 46.5869 16.5119 46.2805 16.5403L46.3088 16.5687C46.4891 17.0826 47.4644 17.5006 47.9105 17.8079C48.4522 18.198 48.9542 18.6711 49.3583 19.2144C49.4979 19.353 49.6374 19.4792 49.7763 19.6174C49.8733 19.7575 49.9007 19.9387 49.9989 20.0636V20.1059C49.8901 20.0676 49.8119 19.9945 49.7378 19.9182L49.6935 19.8721C49.6493 19.8263 49.6047 19.7813 49.5538 19.7442C49.2464 19.5347 48.9412 19.2841 48.6338 19.0894C48.1053 18.7549 47.4923 18.5607 46.9497 18.2249C46.6429 18.0299 46.3504 17.8079 46.0579 17.5848C45.7928 17.3893 45.5008 17.0138 45.3343 16.7352C45.2361 16.5813 45.2226 16.4004 45.1105 16.289C45.1306 16.103 45.3013 16.0478 45.4737 16.0024L45.5133 15.992C45.5728 15.9766 45.631 15.9612 45.6818 15.9408C46.4058 15.6342 47.2689 15.5229 48.3835 15.5508C48.3415 15.2716 47.645 14.9237 47.4227 14.7565C46.9764 14.4356 46.5039 14.1008 46.0305 13.8087C45.7796 13.6557 45.3473 13.5441 45.0694 13.4191C44.6934 13.2658 43.8576 13.1125 43.6492 12.8204C43.2952 12.36 43.0409 11.8109 42.7941 11.2561L42.7269 11.1048L42.6595 10.9535C42.3677 10.2854 42.0053 9.58898 41.7128 8.90499C41.5599 8.57132 41.4897 8.27847 41.3222 7.95844C40.306 5.99463 38.8019 4.35045 36.9783 3.19416C36.379 2.81791 35.7108 2.46973 34.9731 2.2331C34.5551 2.10713 34.0533 2.17679 33.608 2.08014H33.3148C33.0646 2.00981 32.8558 1.74521 32.6606 1.6057C32.2294 1.31363 31.7976 1.11753 31.282 0.909141C31.1014 0.825554 30.5855 0.630906 30.4054 0.78415C30.2939 0.81211 30.2374 0.854098 30.2099 0.965743C30.099 1.13233 30.1966 1.38329 30.2656 1.53692C30.4748 1.98214 30.7669 2.24673 31.0321 2.62298C31.2681 2.95664 31.5611 3.33288 31.7284 3.69568C32.0893 4.47554 32.2574 5.33957 32.5918 6.11932C32.7158 6.41256 32.912 6.74623 33.0926 7.01073C33.2456 7.22067 33.5238 7.37245 33.608 7.63822C33.7757 7.91684 33.3568 8.83621 33.2598 9.12818C32.8971 10.2706 32.9674 11.8587 33.3851 12.849L33.4074 12.9012L33.4296 12.9541C33.5822 13.3168 33.7454 13.7074 34.151 13.8088C34.1789 13.7811 34.151 13.7956 34.2064 13.7811C34.3045 13.0146 34.3321 12.2764 34.597 11.6767C34.75 11.3017 35.0555 11.0367 35.265 10.7306C35.4046 10.814 35.4046 11.0654 35.4878 11.2318C35.6691 11.6634 35.8637 12.1365 36.0871 12.5694C36.5457 13.4608 37.0616 14.325 37.6463 15.1048C37.8421 15.3833 38.1199 15.6899 38.3704 15.9407C38.4821 16.0379 38.6071 16.094 38.6909 16.219H38.7183V16.2611C38.3005 16.1074 38.0357 15.6762 37.7025 15.4245C37.0752 14.9513 36.324 14.2407 35.8916 13.5589C35.7108 13.1675 35.5153 12.7923 35.3203 12.4028V12.3746C35.2371 12.4859 35.265 12.5964 35.2233 12.7647C35.0424 13.4608 35.1817 14.2549 34.5551 14.5052C33.8448 14.7985 33.3149 14.0321 33.0926 13.6838C32.3821 12.5278 32.1874 10.5776 32.6885 9.00338C32.7998 8.65491 32.8149 8.23697 33.0093 7.95873C32.9673 7.70719 32.773 7.63841 32.6606 7.48429C32.4656 7.22087 32.2988 6.91399 32.1461 6.62143C31.853 6.04996 31.6444 5.36714 31.4219 4.75426C31.324 4.50398 31.296 4.25273 31.1984 4.01581C31.032 3.65418 30.7253 3.29138 30.4887 2.97145C30.1683 2.51162 29.2352 1.62041 29.6113 0.714396ZM34.1786 3.44365C34.2158 3.48087 34.2607 3.5134 34.3072 3.54546L34.3633 3.58384C34.438 3.63547 34.5103 3.68983 34.5547 3.76387C34.625 3.86188 34.6381 3.95862 34.7222 4.05682C34.7222 4.39166 34.625 4.61426 34.4286 4.75299C34.4286 4.75299 34.4152 4.76761 34.4015 4.78124C34.2901 4.55805 34.1926 4.33603 34.0805 4.11303C33.9424 3.91838 33.7472 3.76397 33.6347 3.54156H33.6077V3.5136C33.7757 3.4722 33.9424 3.44365 34.1786 3.44365Z" fill="#00758F"/>
</g>
<defs>
<clipPath id="clip0_1235_808">
<rect width="50" height="34" fill="white"/>
</clipPath>
</defs>
</svg>
