<svg width="50" height="50" viewBox="0 0 50 50" fill="none" xmlns="http://www.w3.org/2000/svg">
<path d="M25 31.2547V34.3797H31.25C32.0788 34.3797 32.8737 34.0505 33.4597 33.4644C34.0458 32.8784 34.375 32.0835 34.375 31.2547V28.1297C34.375 27.3009 34.0458 26.506 33.4597 25.92C32.8737 25.3339 32.0788 25.0047 31.25 25.0047H28.125V21.8797H34.375V18.7547H28.125C27.2962 18.7547 26.5013 19.0839 25.9153 19.67C25.3292 20.256 25 21.0509 25 21.8797V25.0047C25 25.8335 25.3292 26.6284 25.9153 27.2144C26.5013 27.8005 27.2962 28.1297 28.125 28.1297H31.25V31.2547H25Z" fill="#8BC34A"/>
<path d="M25 4.6922L6.25 15.6297V37.5047L12.5 40.6297H21.875V19.5359C21.875 19.3287 21.7927 19.13 21.6462 18.9835C21.4997 18.837 21.301 18.7547 21.0938 18.7547H19.5312C19.324 18.7547 19.1253 18.837 18.9788 18.9835C18.8323 19.13 18.75 19.3287 18.75 19.5359V37.5047H12.5L9.375 35.8891V17.4219L25 8.30782L40.625 17.4219V35.7078L25 44.8219L22.2734 43.225L20.3125 45.7078L25 48.4422L43.75 37.5047V15.6297L25 4.6922Z" fill="#8BC34A"/>
</svg>
