<svg width="50" height="50" viewBox="0 0 50 50" fill="none" xmlns="http://www.w3.org/2000/svg">
<path d="M11.3812 7.24164C13.9375 10.8854 15.6187 15.4146 16 20.4125C16.2955 24.1186 15.8188 27.8458 14.6 31.3583C15.3676 30.444 16.3102 29.6923 17.3724 29.1474C18.4346 28.6025 19.595 28.2754 20.7854 28.1854L21.0937 28.1687C21.2604 27.1458 22.0729 20.9812 19.0583 14.2521C16.8333 9.28122 12.8083 7.66872 11.3812 7.24164ZM15.0833 7.31872C15.0833 7.31872 20.0958 9.53956 22.0125 18.875C23.2771 25.0312 22.1146 28.95 21.175 30.9021C23.733 28.4784 27.0486 27.0112 30.5625 26.7479C32.3542 26.6125 34.0937 26.7896 35.7333 27.2333C35.525 25.6896 34.4979 20.1208 30.0417 14.9C23.2437 6.93539 15.0833 7.31872 15.0833 7.31872ZM45.9521 27.5291L8.61875 33.8812C9.58665 34.2148 10.4209 34.8521 10.9971 35.6983C11.5734 36.5445 11.8609 37.5542 11.8167 38.5771C11.8007 39.0087 11.7264 39.4362 11.5958 39.8479C11.7104 39.7916 17.1979 37.1916 24.8083 35.6104C31.5542 34.2083 36.7313 34.8604 37.9021 35.0416C38.6384 33.2927 39.7363 31.7192 41.1236 30.4245C42.511 29.1297 44.1565 28.143 45.9521 27.5291ZM33.0083 36.025C28.1792 36.025 23.3396 37.0562 19.2292 38.4541C13.2542 40.4875 13.0812 41.2625 7.66667 40.6271C3.84167 40.1791 0 38.3041 0 38.3041C0 38.3041 5.0125 42.4083 10.2375 42.7354C14.375 42.9958 17.5396 41.0229 21.3104 39.7896C26.8542 37.975 30.7083 37.7687 34.3375 37.7583C40.3354 37.7416 50 40.3187 50 40.3187C50 40.3187 45.6042 38.1437 39.5146 36.7354C37.3793 36.2559 35.1968 36.0162 33.0083 36.025Z" fill="#8F00E2"/>
</svg>
