<svg width="50" height="50" viewBox="0 0 50 50" fill="none" xmlns="http://www.w3.org/2000/svg">
<g clip-path="url(#clip0_1242_781)">
<path d="M44.1855 10.1821C36.0023 -0.414818 20.7769 -2.37107 10.1796 5.8137C-0.416075 13.9985 -2.37037 29.2239 5.81439 39.8196C14.0007 50.4149 29.2273 52.368 39.8214 44.1817C50.4128 35.9969 52.3675 20.7762 44.1855 10.1821Z" fill="#F37036"/>
<path d="M35.5768 9.43905C34.7422 9.5058 33.9509 9.83788 33.3186 10.3867C32.5787 11.0293 32.1064 11.9259 31.9951 12.8996C31.8837 13.8733 32.1413 14.8534 32.717 15.6465C33.2923 16.4397 34.1439 16.9886 35.1038 17.1849C36.0638 17.3813 37.0625 17.2107 37.903 16.707H37.9038L37.9647 16.768C38.2415 16.6094 38.4991 16.4193 38.7323 16.2016C39.4517 15.4406 39.8475 14.43 39.8362 13.3828C39.8248 12.3356 39.4072 11.3338 38.6713 10.5887V10.5879L35.2167 14.0211L35.1557 13.9605L38.6104 10.5258C38.2105 10.1403 37.7333 9.84409 37.2103 9.65688C36.6873 9.46967 36.1305 9.39569 35.5768 9.43983V9.43905ZM31.0284 15.059C29.3721 15.0562 26.6678 16.9336 20.0647 23.5367L20.0975 23.5703C20.0616 23.5578 20.0253 23.5566 20.0253 23.5566L17.5393 26.0207C17.4755 26.0814 17.4332 26.1613 17.419 26.2483C17.4047 26.3352 17.4193 26.4244 17.4604 26.5024C17.5015 26.5803 17.567 26.6426 17.6468 26.6799C17.7266 26.7172 17.8164 26.7274 17.9026 26.709L22.1659 25.7996C22.1849 25.782 22.1975 25.7587 22.2018 25.7332L22.2963 25.8308L20.8432 27.2723H20.7729L12.1456 35.9676L14.9135 38.6332C14.9908 38.7032 15.0885 38.7466 15.1922 38.7571C15.296 38.7675 15.4004 38.7445 15.4901 38.6914C15.5806 38.6388 15.653 38.56 15.698 38.4655C15.7429 38.371 15.7583 38.2651 15.742 38.1617L15.3377 36.4039C15.3123 36.3686 15.2986 36.3263 15.2986 36.2828C15.2986 36.2393 15.3123 36.197 15.3377 36.1617C19.1167 34.3601 22.6309 32.0492 25.7823 29.2933L24.0108 27.5211L24.0444 27.5156L22.9936 26.4652L23.0608 26.3973L23.1319 26.4699L23.0952 26.5055L25.8831 29.3543V29.3531C31.2268 24.293 35.0198 20.2254 34.0335 17.4879C33.9885 17.1605 33.8365 16.8572 33.601 16.6254V16.6269C33.5411 16.5827 33.478 16.5427 33.4124 16.5074C33.3799 16.473 33.3514 16.4379 33.317 16.4043L33.2913 16.4301C33.2187 16.3862 33.1427 16.3483 33.0639 16.3168L33.1768 16.2027C32.4752 15.5777 31.8956 15.0605 31.0284 15.0582V15.059ZM12.0854 36.0195L10.0655 38.0398V38.0414C9.99301 38.0863 9.93667 38.153 9.90458 38.232C9.8725 38.311 9.86633 38.3981 9.88697 38.4809C9.9069 38.5635 9.95239 38.6378 10.017 38.6932C10.0816 38.7485 10.162 38.7821 10.2467 38.7891L15.1967 39.1309L12.0854 36.0195Z" fill="white"/>
<path d="M35.9178 9.10547C34.7841 9.10419 33.6954 9.54898 32.887 10.3438C32.3118 10.9325 31.918 11.6741 31.7525 12.4803C31.587 13.2865 31.6567 14.1233 31.9534 14.891C30.1014 14.098 27.5959 15.4809 19.8026 23.2727C19.7971 23.2846 19.7923 23.2969 19.7881 23.3094C19.7721 23.3164 19.7566 23.3245 19.7416 23.3336L17.2772 25.8195C17.1591 25.9355 17.0815 26.0864 17.0559 26.25C17.0304 26.4135 17.0583 26.5809 17.1354 26.7273C17.2042 26.8433 17.3017 26.9395 17.4185 27.0068C17.5352 27.0742 17.6674 27.1103 17.8022 27.1117L17.9245 27.0324L21.2151 26.3305L19.6409 27.9191C19.632 27.9401 19.6249 27.9618 19.6198 27.984L11.9049 35.718C11.8742 35.7439 11.8487 35.7754 11.8299 35.8109L9.8432 37.7992C9.74431 37.9038 9.67673 38.034 9.64814 38.1751C9.61956 38.3162 9.63111 38.4624 9.68148 38.5973C9.73348 38.7311 9.82136 38.8481 9.93548 38.9352C10.0496 39.0224 10.1855 39.0765 10.3284 39.0914L15.2573 39.4352C15.3415 39.4059 15.4132 39.3487 15.4604 39.2731C15.5025 39.2141 15.5252 39.1434 15.5252 39.0709C15.5252 38.9984 15.5025 38.9277 15.4604 38.8688L15.4502 38.859C15.5569 38.8036 15.6507 38.7264 15.7256 38.6324C15.8047 38.5297 15.86 38.4106 15.8874 38.2839C15.9148 38.1571 15.9137 38.0259 15.8842 37.8996L15.4998 36.2641C19.1876 34.5018 22.6428 32.2895 25.7866 29.6777C25.8169 29.6954 25.8495 29.709 25.8834 29.718C25.9827 29.7106 26.0756 29.668 26.1459 29.5977C31.4389 24.5859 34.5502 21.1516 34.5502 18.425C34.562 18.0468 34.5049 17.6696 34.3819 17.3117C34.859 17.5092 35.3678 17.619 35.8838 17.6359L35.878 17.6375C36.5888 17.6161 37.2838 17.4217 37.9026 17.0711L37.9041 17.0715C37.9843 17.0953 38.0705 17.0876 38.1452 17.05C38.4438 16.8741 38.716 16.6569 38.9537 16.4047C39.3566 16.0095 39.6767 15.5379 39.8952 15.0176C40.1137 14.4973 40.2263 13.9386 40.2264 13.3742C40.2264 12.8099 40.1138 12.2512 39.8954 11.7309C39.6769 11.2106 39.3569 10.739 38.9541 10.3438C38.9397 10.3308 38.9243 10.3189 38.908 10.3082C38.1038 9.53629 37.0322 9.10544 35.9174 9.10586L35.9178 9.10547ZM35.8838 9.79766C36.6732 9.80237 37.4395 10.0649 38.0659 10.5453L34.9143 13.716C34.9036 13.7282 34.8937 13.7409 34.8846 13.7543C34.8278 13.8118 34.7945 13.8884 34.7913 13.9691C34.7912 14.0179 34.8022 14.0661 34.8234 14.1101C34.8445 14.154 34.8753 14.1927 34.9135 14.223H34.9143L37.2971 16.6059C36.6449 16.8905 35.9219 16.9714 35.2229 16.8381C34.5239 16.7048 33.8815 16.3633 33.3799 15.8586C32.3698 14.843 32.0768 13.318 32.617 11.9949C33.1573 10.6707 34.4452 9.80547 35.8838 9.79766ZM38.6651 11.1383C39.1804 11.7617 39.4613 12.5458 39.4592 13.3547C39.4578 14.3023 39.0801 15.2105 38.4092 15.8797C38.2747 16.0062 38.1314 16.123 37.9803 16.2293L36.0573 14.3359L35.6811 13.9598L35.7846 13.8563L38.6647 11.1375L38.6651 11.1383ZM38.5221 12.7762C38.4514 12.7539 38.375 12.7583 38.3073 12.7883C38.2402 12.823 38.1896 12.8828 38.1666 12.9547C38.1553 12.9906 38.1512 13.0283 38.1546 13.0658C38.1579 13.1033 38.1687 13.1397 38.1862 13.173C38.2554 13.319 38.2827 13.4814 38.265 13.642C38.2472 13.8026 38.1852 13.9551 38.0858 14.0824C38.0603 14.107 38.0404 14.1367 38.0272 14.1696C38.0141 14.2024 38.0081 14.2377 38.0096 14.2731C38.0112 14.3449 38.037 14.4137 38.0858 14.4652C38.1379 14.4851 38.1954 14.4851 38.2475 14.4652C38.2945 14.477 38.3437 14.4756 38.39 14.4614C38.4363 14.4471 38.4778 14.4205 38.51 14.3844C38.6763 14.1806 38.7817 13.934 38.8138 13.6729C38.8459 13.4118 38.8036 13.147 38.6916 12.909V12.9105C38.6535 12.8465 38.5932 12.7987 38.5221 12.7762ZM30.992 15.4023C31.4634 15.4184 31.9169 15.5864 32.285 15.8813C31.8887 15.9384 31.5214 16.122 31.2377 16.4047L22.3287 25.2738L20.5803 23.5254C25.2006 18.927 28.0256 16.525 29.7819 15.7379C30.1438 15.51 30.5645 15.3936 30.992 15.4023ZM32.5409 16.5586C32.84 16.5588 33.1268 16.6773 33.3389 16.8883C33.4514 16.9943 33.5402 17.1229 33.5994 17.2657C33.6586 17.4085 33.6868 17.5623 33.6823 17.7168C33.6771 17.8708 33.6403 18.0221 33.5741 18.1612C33.5079 18.3003 33.4138 18.4243 33.2975 18.5254L23.8248 26.7699L22.8026 25.7477L31.7428 16.8883C31.9549 16.6775 32.2418 16.5587 32.5409 16.5586ZM33.7104 19.175C33.0502 21.793 29.5514 25.3402 25.903 28.7871L24.4276 27.3133L33.7104 19.175ZM20.0651 24.0418L20.1721 24.1473L21.5444 25.5195L17.7827 26.3242L20.0651 24.0418ZM22.328 26.323L22.3295 26.3246L22.7858 26.7914L22.7928 26.8242L22.8233 26.8289L22.9202 26.9281L23.2405 27.2563L21.137 27.5141L22.328 26.323ZM23.8385 27.9152L25.2362 29.3121C22.1456 31.882 18.7542 34.0668 15.1366 35.8184C15.0191 35.8743 14.9247 35.9692 14.8693 36.0869C14.814 36.2047 14.8012 36.3379 14.833 36.4641L15.2373 38.2219C15.2522 38.2425 15.2603 38.2673 15.2603 38.2928C15.2603 38.3182 15.2522 38.343 15.2373 38.3637C15.2151 38.3836 15.1863 38.3946 15.1565 38.3946C15.1266 38.3946 15.0978 38.3836 15.0756 38.3637L12.692 35.9606L20.0389 28.5059L23.8385 27.9152ZM12.1459 36.4856L12.4854 36.8035L14.2401 38.5582L10.3276 38.3051L12.1459 36.4856Z" fill="#F37036"/>
</g>
<defs>
<clipPath id="clip0_1242_781">
<rect width="50" height="50" fill="white"/>
</clipPath>
</defs>
</svg>
