<svg width="50" height="57" viewBox="0 0 50 57" fill="none" xmlns="http://www.w3.org/2000/svg">
<g clip-path="url(#clip0_1235_804)">
<path d="M43.6965 11.1931C43.6573 10.9081 43.4076 10.7504 43.2013 10.733C41.6797 10.6187 40.1582 10.5053 38.6365 10.3928C38.6365 10.3928 35.6093 7.38759 35.277 7.05496C34.9446 6.72252 34.2953 6.82364 34.0433 6.89782C34.0062 6.90875 33.3819 7.10141 32.3492 7.42097C31.3379 4.51123 29.5533 1.83731 26.4136 1.83731C26.3269 1.83731 26.2377 1.84082 26.1485 1.8459C25.2556 0.6651 24.1495 0.1521 23.1941 0.1521C15.8803 0.1521 12.3861 9.29455 11.2906 13.9404C8.4486 14.821 6.42966 15.447 6.17178 15.528C4.58545 16.0256 4.53528 16.0756 4.32699 17.5703C4.17023 18.7019 0.0195312 50.7993 0.0195312 50.7993L32.3626 56.8589L49.8872 53.068C49.8872 53.068 43.7352 11.4781 43.6965 11.1931ZM30.5616 7.97379L27.8248 8.82078C27.8258 8.62792 27.8268 8.43818 27.8268 8.23068C27.8268 6.4223 27.5757 4.96626 27.173 3.81201C28.7908 4.01502 29.8682 5.85561 30.5616 7.97379ZM25.1662 4.1706C25.6159 5.29752 25.9084 6.9148 25.9084 9.0972C25.9084 9.20885 25.9074 9.31095 25.9064 9.41421C24.1266 9.96547 22.1926 10.564 20.2543 11.1644C21.3427 6.96438 23.3827 4.93581 25.1662 4.1706ZM22.9932 2.11372C23.3089 2.11372 23.6269 2.22089 23.9312 2.43034C21.5873 3.53325 19.0748 6.31103 18.0138 11.8582L13.5461 13.2418C14.7888 9.01072 17.7399 2.11372 22.9932 2.11372Z" fill="#95BF46"/>
<path d="M43.2023 10.7329C41.6808 10.6186 40.1592 10.5052 38.6375 10.3927C38.6375 10.3927 35.6103 7.38749 35.2781 7.05486C35.1537 6.9311 34.986 6.86766 34.8107 6.84033L32.3652 56.8584L49.8883 53.0679C49.8883 53.0679 43.7362 11.478 43.6976 11.193C43.6583 10.908 43.4086 10.7503 43.2023 10.7329Z" fill="#5E8E3E"/>
<path d="M26.4129 20.4155L24.252 26.8429C24.252 26.8429 22.3588 25.8325 20.0381 25.8325C16.6358 25.8325 16.4646 27.9674 16.4646 28.5054C16.4646 31.4409 24.1171 32.5657 24.1171 39.4416C24.1171 44.8513 20.6858 48.3348 16.0592 48.3348C10.5072 48.3348 7.66797 44.8797 7.66797 44.8797L9.15454 39.9683C9.15454 39.9683 12.073 42.4737 14.5357 42.4737C16.1449 42.4737 16.7994 41.2069 16.7994 40.2812C16.7994 36.452 10.5213 36.2812 10.5213 29.9892C10.5213 24.6935 14.3225 19.5687 21.9957 19.5687C24.9523 19.5687 26.4129 20.4155 26.4129 20.4155Z" fill="white"/>
</g>
<defs>
<clipPath id="clip0_1235_804">
<rect width="50" height="57" fill="white"/>
</clipPath>
</defs>
</svg>
