<svg width="50" height="53" viewBox="0 0 50 53" fill="none" xmlns="http://www.w3.org/2000/svg">
<path d="M25 10.5586C18.3333 10.5586 14.1667 14.0919 12.5 21.1586C15 17.6253 17.9167 16.3003 21.25 17.1836C23.1519 17.6876 24.5112 19.1501 26.0158 20.769C28.4669 23.4063 31.3038 26.4586 37.5 26.4586C44.1667 26.4586 48.3333 22.9253 50 15.8586C47.5 19.3919 44.5833 20.7169 41.25 19.8336C39.3481 19.3296 37.9888 17.8671 36.4842 16.2481C34.0331 13.6109 31.1962 10.5586 25 10.5586ZM12.5 26.4586C5.83333 26.4586 1.66667 29.9919 0 37.0586C2.5 33.5253 5.41667 32.2003 8.75 33.0836C10.6519 33.5876 12.0112 35.0501 13.5158 36.669C15.9669 39.3063 18.8038 42.3586 25 42.3586C31.6667 42.3586 35.8333 38.8253 37.5 31.7586C35 35.2919 32.0833 36.6169 28.75 35.7336C26.8481 35.2296 25.4888 33.7671 23.9842 32.1481C21.5331 29.5109 18.6962 26.4586 12.5 26.4586Z" fill="url(#paint0_linear_1235_771)"/>
<defs>
<linearGradient id="paint0_linear_1235_771" x1="-1.38889" y1="20.7346" x2="43.0129" y2="44.8865" gradientUnits="userSpaceOnUse">
<stop stop-color="#2298BD"/>
<stop offset="1" stop-color="#0ED7B5"/>
</linearGradient>
</defs>
</svg>
