<svg width="50" height="50" viewBox="0 0 50 50" fill="none" xmlns="http://www.w3.org/2000/svg">
<path fill-rule="evenodd" clip-rule="evenodd" d="M38.7465 36.3083C39.1569 37.0193 39.4232 37.804 39.5303 38.6179C39.6374 39.4317 39.5831 40.2587 39.3706 41.0516C39.1581 41.8445 38.7915 42.5877 38.2917 43.2389C37.792 43.8901 37.1689 44.4365 36.4579 44.8469C35.747 45.2573 34.9622 45.5236 34.1484 45.6307C33.3345 45.7378 32.5076 45.6835 31.7147 45.471C30.9218 45.2585 30.1786 44.8919 29.5274 44.3921C28.8762 43.8924 28.3298 43.2693 27.9194 42.5583C27.0906 41.1226 26.8661 39.4164 27.2953 37.8151C27.7245 36.2138 28.7722 34.8486 30.2079 34.0198C31.6437 33.191 33.3499 32.9665 34.9512 33.3957C36.5525 33.8249 37.9177 34.8726 38.7465 36.3083ZM42.1881 17.4979C43.2199 19.8644 43.7518 22.4184 43.7506 25C43.7515 27.5809 43.2196 30.1342 42.1881 32.5C42.0844 32.759 41.9297 32.9945 41.7333 33.1925C41.5368 33.3906 41.3025 33.5472 41.0444 33.653C40.7863 33.7588 40.5095 33.8117 40.2306 33.8085C39.9516 33.8054 39.6761 33.7462 39.4205 33.6346C39.1648 33.5229 38.9342 33.3611 38.7423 33.1586C38.5503 32.9561 38.401 32.7172 38.3032 32.4559C38.2053 32.1947 38.161 31.9164 38.1727 31.6377C38.1844 31.359 38.252 31.0854 38.3715 30.8333C39.1728 28.9931 39.5856 27.0072 39.584 25C39.584 22.9229 39.1506 20.95 38.3715 19.1667C38.1701 18.664 38.1724 18.1028 38.3778 17.6018C38.5832 17.1008 38.9755 16.6994 39.4717 16.4828C39.9679 16.2661 40.529 16.2511 41.036 16.441C41.5431 16.6309 41.9563 17.0086 42.1881 17.4979ZM36.459 5.15417C37.1855 5.55623 37.8246 6.09904 38.339 6.75087C38.8534 7.40271 39.2328 8.15051 39.4549 8.9506C39.677 9.75069 39.7375 10.587 39.6328 11.4108C39.5281 12.2345 39.2603 13.0291 38.8451 13.7482C38.4298 14.4672 37.8754 15.0963 37.2143 15.5988C36.5532 16.1012 35.7986 16.4668 34.9946 16.6743C34.1906 16.8818 33.3533 16.927 32.5316 16.8073C31.7099 16.6876 30.9204 16.4054 30.209 15.9771C28.8058 15.1323 27.7903 13.7704 27.381 12.1845C26.9717 10.5987 27.2013 8.91546 28.0203 7.49711C28.8394 6.07876 30.1825 5.03861 31.7607 4.60044C33.3388 4.16227 35.0259 4.36111 36.459 5.15417ZM10.3507 33.2229C10.795 32.8949 11.3513 32.7568 11.8975 32.8388C12.4436 32.9208 12.9348 33.2164 13.2632 33.6604C14.4549 35.2756 15.9672 36.6274 17.7055 37.6312C19.4438 38.6349 21.3706 39.269 23.3652 39.4938C23.9036 39.5677 24.3918 39.8491 24.7256 40.2779C25.0595 40.7067 25.2125 41.249 25.1522 41.789C25.0918 42.3291 24.8229 42.8242 24.4026 43.1688C23.9824 43.5133 23.4442 43.68 22.9027 43.6333C20.3387 43.3448 17.8618 42.5301 15.627 41.2403C13.3923 39.9505 11.4478 38.2133 9.91523 36.1375C9.75239 35.9176 9.63448 35.6677 9.56823 35.4022C9.50198 35.1366 9.48869 34.8607 9.52912 34.59C9.56956 34.3193 9.66292 34.0593 9.80388 33.8247C9.94484 33.5902 10.1306 33.3857 10.3507 33.2229ZM8.33398 18.75C9.99159 18.75 11.5813 19.4085 12.7534 20.5806C13.9255 21.7527 14.584 23.3424 14.584 25C14.584 26.6576 13.9255 28.2473 12.7534 29.4194C11.5813 30.5915 9.99159 31.25 8.33398 31.25C6.67638 31.25 5.08667 30.5915 3.91457 29.4194C2.74246 28.2473 2.08398 26.6576 2.08398 25C2.08398 23.3424 2.74246 21.7527 3.91457 20.5806C5.08667 19.4085 6.67638 18.75 8.33398 18.75ZM22.9027 6.36667C23.452 6.30534 24.003 6.4647 24.4348 6.80968C24.8665 7.15467 25.1435 7.65703 25.2048 8.20625C25.2661 8.75547 25.1068 9.30656 24.7618 9.73828C24.4168 10.17 23.9145 10.447 23.3652 10.5083C21.3706 10.7331 19.4438 11.3672 17.7055 12.3709C15.9672 13.3747 14.4549 14.7265 13.2632 16.3417C12.9255 16.7598 12.4394 17.0313 11.9064 17.0994C11.3733 17.1675 10.8345 17.027 10.4026 16.7073C9.9707 16.3875 9.67907 15.9132 9.58863 15.3835C9.49819 14.8537 9.61596 14.3095 9.91732 13.8646C11.4495 11.788 13.3938 10.05 15.6285 8.75951C17.8633 7.46898 20.3404 6.65366 22.9048 6.36459" fill="#DE4C36"/>
</svg>
