<svg width="50" height="50" viewBox="0 0 50 50" fill="none" xmlns="http://www.w3.org/2000/svg">
<path fill-rule="evenodd" clip-rule="evenodd" d="M23.6105 11.2243L10.416 13.3722V23.6111H23.6105V11.2243ZM10.416 26.3889V36.6278L23.6105 38.7757V26.3889H10.416ZM26.3882 39.2278L41.666 41.7153V26.3889H26.3882V39.2278ZM41.666 23.6111H26.3882V10.7722L41.666 8.28473V23.6111Z" fill="#61B2E4"/>
<path d="M23.6115 11.2243H24.306C24.306 11.1237 24.2841 11.0243 24.2419 10.933C24.1997 10.8417 24.1382 10.7606 24.0616 10.6955C23.985 10.6303 23.8951 10.5825 23.7982 10.5555C23.7013 10.5284 23.5997 10.5228 23.5004 10.5389L23.6115 11.2243ZM10.4171 13.3722L10.306 12.6868C10.1432 12.7132 9.99513 12.7966 9.88825 12.9222C9.78138 13.0478 9.72268 13.2073 9.72266 13.3722H10.4171ZM10.4171 23.6111H9.72266C9.72266 23.7953 9.79582 23.9719 9.92605 24.1021C10.0563 24.2324 10.2329 24.3055 10.4171 24.3055V23.6111ZM23.6115 23.6111V24.3055C23.7957 24.3055 23.9724 24.2324 24.1026 24.1021C24.2328 23.9719 24.306 23.7953 24.306 23.6111H23.6115ZM10.4171 26.3889V25.6944C10.2329 25.6944 10.0563 25.7676 9.92605 25.8978C9.79582 26.028 9.72266 26.2047 9.72266 26.3889H10.4171ZM10.4171 36.6277H9.72266C9.72268 36.7927 9.78138 36.9522 9.88825 37.0778C9.99513 37.2033 10.1432 37.2868 10.306 37.3132L10.4171 36.6277ZM23.6115 38.7757L23.5004 39.4611C23.5997 39.4772 23.7013 39.4715 23.7982 39.4445C23.8951 39.4174 23.985 39.3697 24.0616 39.3045C24.1382 39.2393 24.1997 39.1583 24.2419 39.0669C24.2841 38.9756 24.306 38.8763 24.306 38.7757H23.6115ZM23.6115 26.3889H24.306C24.306 26.2047 24.2328 26.028 24.1026 25.8978C23.9724 25.7676 23.7957 25.6944 23.6115 25.6944V26.3889ZM26.3893 39.2277H25.6949C25.6949 39.3927 25.7536 39.5522 25.8605 39.6777C25.9674 39.8033 26.1154 39.8868 26.2782 39.9132L26.3893 39.2277ZM41.6671 41.7152L41.556 42.4007C41.6553 42.4168 41.7569 42.4111 41.8538 42.3841C41.9507 42.357 42.0405 42.3092 42.1171 42.2441C42.1937 42.1789 42.2553 42.0978 42.2975 42.0065C42.3397 41.9152 42.3615 41.8158 42.3615 41.7152H41.6671ZM41.6671 26.3889H42.3615C42.3615 26.2047 42.2884 26.028 42.1581 25.8978C42.0279 25.7676 41.8513 25.6944 41.6671 25.6944V26.3889ZM26.3893 26.3889V25.6944C26.2051 25.6944 26.0285 25.7676 25.8983 25.8978C25.768 26.028 25.6949 26.2047 25.6949 26.3889H26.3893ZM41.6671 23.6111V24.3055C41.8513 24.3055 42.0279 24.2324 42.1581 24.1021C42.2884 23.9719 42.3615 23.7953 42.3615 23.6111H41.6671ZM26.3893 23.6111H25.6949C25.6949 23.7953 25.768 23.9719 25.8983 24.1021C26.0285 24.2324 26.2051 24.3055 26.3893 24.3055V23.6111ZM26.3893 10.7722L26.2782 10.0868C26.1154 10.1132 25.9674 10.1966 25.8605 10.3222C25.7536 10.4478 25.6949 10.6073 25.6949 10.7722H26.3893ZM41.6671 8.2847H42.3615C42.3615 8.18411 42.3397 8.08472 42.2975 7.99342C42.2553 7.90211 42.1937 7.82106 42.1171 7.75588C42.0405 7.69069 41.9507 7.64293 41.8538 7.61589C41.7569 7.58885 41.6553 7.58318 41.556 7.59928L41.6671 8.2847ZM23.5004 10.5389L10.306 12.6868L10.5282 14.0576L23.7227 11.9097L23.5004 10.5389ZM9.72266 13.3722V23.6111H11.1115V13.3722H9.72266ZM23.6115 22.9166H10.4171V24.3055H23.6115V22.9166ZM22.9171 11.2243V23.6111H24.306V11.2243H22.9171ZM9.72266 26.3889V36.6277H11.1115V26.3889H9.72266ZM10.306 37.3132L23.5004 39.4611L23.7227 38.0902L10.5282 35.9423L10.306 37.3132ZM22.9171 26.3889V38.7757H24.306V26.3889H22.9171ZM10.4171 27.0833H23.6115V25.6944H10.4171V27.0833ZM26.2782 39.9132L41.556 42.4007L41.7782 41.0298L26.5004 38.5423L26.2782 39.9132ZM42.3615 41.7152V26.3889H40.9727V41.7152H42.3615ZM26.3893 27.0833H41.6671V25.6944H26.3893V27.0833ZM27.0838 39.2277V26.3889H25.6949V39.2277H27.0838ZM41.6671 22.9166H26.3893V24.3055H41.6671V22.9166ZM27.0838 23.6111V10.7722H25.6949V23.6111H27.0838ZM41.556 7.59928L26.2782 10.0868L26.5004 11.4576L41.7782 8.97011L41.556 7.59928ZM42.3615 23.6111V8.2847H40.9727V23.6111H42.3615Z" fill="black"/>
</svg>
