<svg width="50" height="50" viewBox="0 0 50 50" fill="none" xmlns="http://www.w3.org/2000/svg">
<g clip-path="url(#clip0_1242_785)">
<path d="M38.2812 0H11.7188C5.24666 0 0 5.24666 0 11.7188V38.2812C0 44.7533 5.24666 50 11.7188 50H38.2812C44.7533 50 50 44.7533 50 38.2812V11.7188C50 5.24666 44.7533 0 38.2812 0Z" fill="#0073AA"/>
<path d="M8.24414 24.9988C8.24414 31.6307 12.0982 37.3619 17.6869 40.0779L9.69473 18.1803C8.7369 20.3258 8.2426 22.6492 8.24414 24.9988ZM36.3094 24.1533C36.3094 22.0828 35.5656 20.6488 34.9277 19.5326C34.0783 18.1526 33.2822 16.9838 33.2822 15.6037C33.2822 14.0635 34.4504 12.6299 36.0957 12.6299C36.1701 12.6299 36.2404 12.6391 36.3129 12.6432C33.332 9.91232 29.3607 8.24493 24.9986 8.24493C19.1455 8.24493 13.9957 11.2481 11 15.7969C11.393 15.8086 11.7635 15.817 12.0781 15.817C13.8307 15.817 16.5434 15.6041 16.5434 15.6041C17.4465 15.551 17.5531 16.8776 16.6508 16.9844C16.6508 16.9844 15.7432 17.0912 14.7332 17.1442L20.8344 35.2922L24.501 24.2955L21.8906 17.1436C20.9885 17.0906 20.1338 16.9838 20.1338 16.9838C19.2309 16.9309 19.3367 15.5504 20.2397 15.6037C20.2397 15.6037 23.0064 15.8162 24.6527 15.8162C26.4051 15.8162 29.118 15.6037 29.118 15.6037C30.0219 15.5504 30.1279 16.877 29.2254 16.9838C29.2254 16.9838 28.3158 17.0906 27.3078 17.1436L33.3627 35.1541L35.0338 29.5697C35.7582 27.2522 36.3094 25.5877 36.3094 24.1533Z" fill="white"/>
<path d="M25.2926 26.4645L20.2656 41.0719C21.8026 41.5245 23.3964 41.7544 24.9986 41.7545C26.8936 41.7551 28.7749 41.434 30.5623 40.8047C30.5158 40.7314 30.476 40.6542 30.4432 40.5739L25.2926 26.4645ZM39.7 16.9606C39.7761 17.5316 39.8138 18.1071 39.8129 18.6832C39.8129 20.3834 39.4953 22.2948 38.5389 24.6846L33.4211 39.4813C38.4021 36.5766 41.7525 31.1803 41.7525 24.9992C41.7527 22.0862 41.0088 19.3469 39.7 16.9606Z" fill="white"/>
<path d="M24.9996 5.46875C14.2305 5.46875 5.46875 14.2299 5.46875 24.9988C5.46875 35.7691 14.2305 44.5299 24.9996 44.5299C35.7682 44.5299 44.5312 35.7691 44.5312 24.9988C44.5309 14.2299 35.7682 5.46875 24.9996 5.46875ZM24.9996 43.6348C14.7242 43.6348 6.36426 35.2746 6.36426 24.9988C6.36426 14.7236 14.724 6.36426 24.9996 6.36426C35.2744 6.36426 43.6338 14.7236 43.6338 24.9988C43.6338 35.2746 35.2744 43.6348 24.9996 43.6348Z" fill="white"/>
</g>
<defs>
<clipPath id="clip0_1242_785">
<rect width="50" height="50" fill="white"/>
</clipPath>
</defs>
</svg>
